<svg xmlns="http://www.w3.org/2000/svg" viewBox="0 0 500 500"><g id="freepik--background-simple--inject-10"><path d="M380,133.87s-21-30-56-47-91-23-133,23-15.74,33.77-64.37,50.89S45,200.87,67,240.87,175.92,288,156.46,297.45,66,321.87,95,362.87s134,15,173,16,16,25,50,28,79-33,92-86-62-76-45-100S403,175.87,380,133.87Z" style="fill:#A490D1"></path><path d="M380,133.87s-21-30-56-47-91-23-133,23-15.74,33.77-64.37,50.89S45,200.87,67,240.87,175.92,288,156.46,297.45,66,321.87,95,362.87s134,15,173,16,16,25,50,28,79-33,92-86-62-76-45-100S403,175.87,380,133.87Z" style="fill:#fff;opacity:0.7000000000000001"></path></g><g id="freepik--speech-bubble--inject-10"><path d="M354.19,119.21v8.44a2.82,2.82,0,0,1-2.82,2.82H126.63a2.82,2.82,0,0,1-2.82-2.82V86.88a2.82,2.82,0,0,1,2.82-2.82H351.37a2.82,2.82,0,0,1,2.82,2.82V98.14" style="fill:#fff;stroke:#2e353a;stroke-miterlimit:10"></path><line x1="354.19" y1="104.92" x2="354.19" y2="115.83" style="fill:#fff;stroke:#2e353a;stroke-miterlimit:10"></line><line x1="127.57" y1="112.15" x2="344.12" y2="112.15" style="fill:none;stroke:#2e353a;stroke-linecap:round;stroke-linejoin:round"></line><line x1="127.57" y1="116.36" x2="344.12" y2="116.36" style="fill:none;stroke:#2e353a;stroke-linecap:round;stroke-linejoin:round"></line><line x1="127.57" y1="120.57" x2="344.12" y2="120.57" style="fill:none;stroke:#2e353a;stroke-linecap:round;stroke-linejoin:round"></line><line x1="127.57" y1="124.78" x2="344.12" y2="124.78" style="fill:none;stroke:#2e353a;stroke-linecap:round;stroke-linejoin:round"></line><line x1="144.19" y1="90.34" x2="164.61" y2="90.34" style="fill:none;stroke:#2e353a;stroke-linecap:round;stroke-linejoin:round"></line><line x1="144.19" y1="94.55" x2="196.11" y2="94.55" style="fill:none;stroke:#2e353a;stroke-linecap:round;stroke-linejoin:round"></line><line x1="144.19" y1="98.76" x2="170.15" y2="98.76" style="fill:none;stroke:#2e353a;stroke-linecap:round;stroke-linejoin:round"></line><rect x="127.22" y="86.83" width="14.89" height="16.96" rx="1.9" style="fill:#A490D1"></rect><path d="M354.19,331V362.3a2.82,2.82,0,0,1-2.82,2.82H126.63a2.82,2.82,0,0,1-2.82-2.82V315.87a2.81,2.81,0,0,1,2.82-2.81H351.37a2.81,2.81,0,0,1,2.82,2.81v9.5" style="fill:#fff;stroke:#2e353a;stroke-miterlimit:10"></path><line x1="127.57" y1="341.14" x2="344.12" y2="341.14" style="fill:none;stroke:#2e353a;stroke-linecap:round;stroke-linejoin:round"></line><line x1="127.57" y1="345.35" x2="344.12" y2="345.35" style="fill:none;stroke:#2e353a;stroke-linecap:round;stroke-linejoin:round"></line><line x1="127.57" y1="349.56" x2="344.12" y2="349.56" style="fill:none;stroke:#2e353a;stroke-linecap:round;stroke-linejoin:round"></line><line x1="127.57" y1="353.77" x2="344.12" y2="353.77" style="fill:none;stroke:#2e353a;stroke-linecap:round;stroke-linejoin:round"></line><line x1="144.19" y1="319.33" x2="164.61" y2="319.33" style="fill:none;stroke:#2e353a;stroke-linecap:round;stroke-linejoin:round"></line><line x1="144.19" y1="323.54" x2="196.11" y2="323.54" style="fill:none;stroke:#2e353a;stroke-linecap:round;stroke-linejoin:round"></line><line x1="144.19" y1="327.75" x2="170.15" y2="327.75" style="fill:none;stroke:#2e353a;stroke-linecap:round;stroke-linejoin:round"></line><rect x="127.22" y="315.83" width="14.89" height="16.96" rx="1.9" style="fill:#A490D1"></rect><path d="M123.81,222.67v-59.1a2.81,2.81,0,0,1,2.82-2.81H351.37a2.81,2.81,0,0,1,2.82,2.81V285.4a2.81,2.81,0,0,1-2.82,2.81H126.63a2.81,2.81,0,0,1-2.82-2.81V247.12" style="fill:#fff;stroke:#2e353a;stroke-miterlimit:10"></path><line x1="123.81" y1="240.35" x2="123.81" y2="228.31" style="fill:#fff;stroke:#2e353a;stroke-miterlimit:10"></line><line x1="144.19" y1="167.03" x2="164.61" y2="167.03" style="fill:none;stroke:#2e353a;stroke-linecap:round;stroke-linejoin:round"></line><line x1="144.19" y1="171.24" x2="196.11" y2="171.24" style="fill:none;stroke:#2e353a;stroke-linecap:round;stroke-linejoin:round"></line><line x1="144.19" y1="175.45" x2="170.15" y2="175.45" style="fill:none;stroke:#2e353a;stroke-linecap:round;stroke-linejoin:round"></line><rect x="127.22" y="163.53" width="14.89" height="16.96" rx="1.9" style="fill:#A490D1"></rect><path d="M156.46,297.45a5.78,5.78,0,1,0-5.78,5.78A5.78,5.78,0,0,0,156.46,297.45Z" style="fill:#A490D1"></path><circle cx="166.73" cy="297.45" r="5.78" style="fill:#A490D1"></circle><path d="M188.57,297.45a5.78,5.78,0,1,0-5.78,5.78A5.78,5.78,0,0,0,188.57,297.45Z" style="fill:#A490D1"></path><path d="M156.46,138.17a5.78,5.78,0,1,0-5.78,5.78A5.78,5.78,0,0,0,156.46,138.17Z" style="fill:#A490D1"></path><path d="M172.52,138.17a5.79,5.79,0,1,0-5.79,5.78A5.78,5.78,0,0,0,172.52,138.17Z" style="fill:#A490D1"></path><path d="M188.57,138.17a5.78,5.78,0,1,0-5.78,5.78A5.78,5.78,0,0,0,188.57,138.17Z" style="fill:#A490D1"></path><path d="M156.46,374.52a5.78,5.78,0,1,0-5.78,5.78A5.78,5.78,0,0,0,156.46,374.52Z" style="fill:#A490D1"></path><path d="M172.52,374.52a5.79,5.79,0,1,0-5.79,5.78A5.78,5.78,0,0,0,172.52,374.52Z" style="fill:#A490D1"></path><path d="M188.57,374.52a5.78,5.78,0,1,0-5.78,5.78A5.78,5.78,0,0,0,188.57,374.52Z" style="fill:#A490D1"></path><rect x="143.15" y="181.88" width="199.75" height="94.91" style="fill:#A490D1"></rect><rect x="143.15" y="181.88" width="199.75" height="94.91" style="fill:#fff;opacity:0.5"></rect><rect x="143.15" y="181.88" width="199.75" height="94.91" style="fill:none;stroke:#2e353a;stroke-miterlimit:10"></rect><line x1="143.15" y1="276.79" x2="342.9" y2="181.88" style="fill:none;stroke:#2e353a;stroke-miterlimit:10"></line></g><g id="freepik--Shadow--inject-10"><ellipse cx="240.5" cy="417.87" rx="52.5" ry="13" style="fill:#fff;opacity:0.30000000000000004"></ellipse><ellipse cx="240.5" cy="417.87" rx="52.5" ry="13" style="fill:#A490D1"></ellipse><ellipse cx="240.5" cy="417.87" rx="52.5" ry="13" style="fill:#fff;opacity:0.5"></ellipse></g><g id="freepik--Character--inject-10"><path d="M193.3,218.12s10.95,12.25,15.7,20.25,11.75,9.75,13.5,9.75,12.25-13.5,13-14.5-7.75-5.75-7.75-5.75l-8,2s-11.5-3.5-15.5-8S192.85,211.37,193.3,218.12Z" style="fill:#fff;stroke:#2e353a;stroke-linecap:round;stroke-linejoin:round"></path><path d="M237.75,199.37s-3.25,10.75-5.5,17-3.25,8.5-5,9.5a12.93,12.93,0,0,0-3.25,3,25.91,25.91,0,0,0,9.5,7.75c5.75,2.5,8.25,1.75,8.25,1.75s1.5-26.75.5-33.5S240.75,195.12,237.75,199.37Z" style="fill:#fff;stroke:#2e353a;stroke-linecap:round;stroke-linejoin:round"></path><path d="M246.33,409s.5,1-3.25,3.25-12,6.5-12.5,9,3.75,2.5,11,2.5,17-4.5,19.75-5.25,1.5-4.5.25-7.25S249.08,406.7,246.33,409Z" style="fill:#fff;stroke:#2e353a;stroke-linecap:round;stroke-linejoin:round"></path><path d="M261.33,418.45c1.92-.52,1.89-2.51,1.27-4.6-2.26,1.48-7.85,4.46-18.27,6.1-7.13,1.13-11.25,1.12-13.6.84a2.57,2.57,0,0,0-.15.41c-.5,2.5,3.75,2.5,11,2.5S258.58,419.2,261.33,418.45Z" style="fill:#fff;stroke:#2e353a;stroke-linecap:round;stroke-linejoin:round"></path><path d="M239.08,395.2s-3.75,3-8.25,7.25-6.25,5.25-2.5,6.25,7-1,11-2.25a43,43,0,0,0,7.5-3.25s2.75-4,.75-8.25S239.08,395.2,239.08,395.2Z" style="fill:#fff;stroke:#2e353a;stroke-linecap:round;stroke-linejoin:round"></path><path d="M246.83,403.2a9.31,9.31,0,0,0,1.12-2.52c-3,1.32-7.51,3.27-11.12,4.77a21,21,0,0,1-10.23,1.18c-.68,1-.25,1.54,1.73,2.07,3.75,1,7-1,11-2.25A43,43,0,0,0,246.83,403.2Z" style="fill:#fff;stroke:#2e353a;stroke-linecap:round;stroke-linejoin:round"></path><path d="M263,304.87c6.75-10.75,7.75-20,10-28.25a32.31,32.31,0,0,0-.25-16.25l-40.5,2s-6.5,19-6.5,20S202.08,330,200.58,337.45s3.5,14.25,5.75,16.5,32.75,41.25,32.75,41.25a27.24,27.24,0,0,1,3,.25,26.25,26.25,0,0,0,2.75.25l.75,6.5a4.9,4.9,0,0,0-1.5,4,7.29,7.29,0,0,0,2.25,4.25s2.25-1.5,8.75.5,7.75,2.75,8,.75-6.75-16.5-6.75-24.75-2.25-19.75-6.5-27.75a47.6,47.6,0,0,0-9-12.25l.25-3S256.25,315.62,263,304.87ZM226.83,340.2c-.5,6.5-.75,11.25-.75,11.25l-5.75-14.75,9-13.5S227.33,333.7,226.83,340.2Z" style="fill:#2e353a;stroke:#2e353a;stroke-linecap:round;stroke-linejoin:round"></path><path d="M236.75,192.62a252.51,252.51,0,0,1-.75,31.5c-1.5,17.75-3.5,36.75-3.75,38.25s10.5,2,22.75,2.25,18-1,18.5-2.75-1-47.25-6.75-63-15-22-18.25-23S236,183.62,236.75,192.62Z" style="fill:#A490D1;stroke:#2e353a;stroke-linecap:round;stroke-linejoin:round"></path><path d="M236.65,183.37a26.92,26.92,0,0,0-2.9,5.94c-1.1,3.32.14,8.15-.69,10.64s.55,3,1.24,1.38,2.08-6.77,2.08-6.77l4.28,2.49s3-3.59,3.59-3.32,4.29,7.33,4.7,5.81,2.91-13.27,2.08-20.18-5.26-7.74-8.16-7.88S236.65,183.37,236.65,183.37Z" style="fill:#fff;stroke:#2e353a;stroke-linecap:round;stroke-linejoin:round"></path><path d="M228.24,180.9s6.23,2.76,8.31,5.88a46.21,46.21,0,0,1,3.81,7.61s3.81-12.11,4.15-17.65-9-17.3-9-17.3-3.8-5.19-6.57,4.15A35.47,35.47,0,0,0,228.24,180.9Z" style="fill:#fff;stroke:#2e353a;stroke-linecap:round;stroke-linejoin:round"></path><path d="M200.45,159.23s9.69,10.73,9.69,12.11a15.38,15.38,0,0,0,2.43,6.58c1.38,2.08,11.42,9.69,14.88,9.69s9.34-8,10.38-11.08-1.38-9-1.38-9,1-1.73,1.73-6.58.69-9.34-2.08-11.07-8-2.43-13.5-2.43-9.34-2.07-12.8.69S200.45,159.23,200.45,159.23Z" style="fill:#fff;stroke:#2e353a;stroke-linecap:round;stroke-linejoin:round"></path><path d="M220.18,149.54s-6.92-1.39-8.31,2.42,1,6.92-6.92,8-19-5.19-19-12.46,9-12.46,11.42-10.73,4.5,4.16,5.88-.69,8.31-8,11.77-8,4.15,4.85,5.19,4.85,5.19-2.43,9-2.43,8.65,3.46,10.73,11.08,3.11,18.34,1,20.42-3.11,1.38-3.11,1.38.35-8.3-1-10.38-5.19,4.85-5.19,4.85a16.07,16.07,0,0,1-6.92-3.12C221.91,152.31,221.56,149.54,220.18,149.54Z" style="fill:#2e353a;stroke:#2e353a;stroke-linecap:round;stroke-linejoin:round"></path><path d="M218.9,164.83c.55,1.09.61,2.17.13,2.41s-1.31-.45-1.86-1.54-.61-2.17-.14-2.41S218.34,163.74,218.9,164.83Z" style="fill:#2e353a"></path><path d="M212.4,167.73c.55,1.09.61,2.17.14,2.41s-1.31-.45-1.87-1.54-.61-2.16-.13-2.41S211.85,166.64,212.4,167.73Z" style="fill:#2e353a"></path><line x1="206.84" y1="163.47" x2="212.37" y2="164.99" style="fill:none;stroke:#2e353a;stroke-linecap:round;stroke-linejoin:round"></line><path d="M213.75,162s-1.94-5.12,4.7-5.67" style="fill:none;stroke:#2e353a;stroke-linecap:round;stroke-linejoin:round"></path><path d="M187.16,220.45s4-2.33,6.14-2.33,2.31,2.12,1.54,2.33-6.91,3.61-8.07,3.4-1-2.13-.57-3" style="fill:#fff;stroke:#2e353a;stroke-linecap:round;stroke-linejoin:round"></path><path d="M180.78,215.87s5.22-2.73,7.95-2.73,3,2.48,2,2.73-8.95,4.22-10.44,4-1.24-2.49-.75-3.48" style="fill:#fff;stroke:#2e353a;stroke-linecap:round;stroke-linejoin:round"></path><path d="M184.53,218.12s5.22-2.73,7.95-2.73,3,2.48,2,2.73-8.95,4.22-10.44,4-1.24-2.49-.75-3.48" style="fill:#fff;stroke:#2e353a;stroke-linecap:round;stroke-linejoin:round"></path><path d="M181.5,206.37a55.27,55.27,0,0,1-3.25,6,3.84,3.84,0,0,0,.75,5.25c1.5,1,9.5-3.75,9.5-3.75Z" style="fill:#fff;stroke:#2e353a;stroke-linecap:round;stroke-linejoin:round"></path><path d="M180.5,201.87s2.75-2.75,5-2.75,4.25,5.75,2.5,7.25-4.25-2.5-4.25-2.5Z" style="fill:#fff;stroke:#2e353a;stroke-linecap:round;stroke-linejoin:round"></path><path d="M202.25,220.87l-15.54-16.94a5.46,5.46,0,0,0-3-1.66L177,200.92a.85.85,0,0,0-.78,1.44l17,17.26Z" style="fill:#2e353a"></path><path d="M250.75,235.37s-.5,4-12-.5-32.25-15.25-32.25-15.25-.5-6.25-1.5-8.5-6.75-4.75-8.25-6.5-1.75-3.75-3-4.75-2.75.5-2.75,3,.25,4,2.25,5a21.49,21.49,0,0,1,3,1.75,20,20,0,0,1-4.75,4.5c-2.75,1.75-6.75,4.75-6,6.25s5.5,1,5.5,1,0,3.5,2.25,4.75a8.22,8.22,0,0,0,5.25.5s-1.25,3-3.75,2.25,0,2.5,2.5,2.5,4.5-6.75,4.5-6.75,7,5.25,16.75,12,26.75,14.5,37,17,9.75-13.75,9.75-13.75Z" style="fill:#fff;stroke:#2e353a;stroke-linecap:round;stroke-linejoin:round"></path><path d="M259.5,189.87s-6-1.75-7.75,5.25,0,21.5.5,28.25-3,9.5-3,10.75,3,5,7.75,7.25,11.25,1.25,11.25,1.25,3.75-20.75-.25-36.25S261.75,190.87,259.5,189.87Z" style="fill:#fff;stroke:#2e353a;stroke-linecap:round;stroke-linejoin:round"></path><path d="M179.5,213.62s5.25-2.75,8-2.75,3,2.5,2,2.75-9,4.25-10.5,4-1.25-2.5-.75-3.5" style="fill:#fff;stroke:#2e353a;stroke-linecap:round;stroke-linejoin:round"></path><path d="M205,204.62s4.75,2.75,5.25,7.5" style="fill:none;stroke:#2e353a;stroke-linecap:round;stroke-linejoin:round"></path><path d="M210.25,205.12a9.23,9.23,0,0,1,3.5,6.5" style="fill:none;stroke:#2e353a;stroke-linecap:round;stroke-linejoin:round"></path><path d="M181.25,196.87a2.52,2.52,0,0,0-2.25,2.5" style="fill:none;stroke:#2e353a;stroke-linecap:round;stroke-linejoin:round"></path><path d="M177.75,196.37a2.81,2.81,0,0,0-.75,3.5" style="fill:none;stroke:#2e353a;stroke-linecap:round;stroke-linejoin:round"></path><polyline points="235.78 276.05 240.23 279.29 229.33 323.2" style="fill:none;stroke:#fff;stroke-linecap:round;stroke-linejoin:round;stroke-width:0.75px"></polyline><path d="M263.31,267.14s-4.05,6.48-2.43,10.13a7.41,7.41,0,0,0,5.67,4.05" style="fill:none;stroke:#fff;stroke-linecap:round;stroke-linejoin:round;stroke-width:0.75px"></path><path d="M262.51,296.62c-7.44,14.23-28.37,49.41-28.37,51.9,0,2.84,5.26-.4,5.67,1.22s-.41,3.64,0,5.26,4.05,1.21,7.28,6.88,4.46,30,8.1,36,4.05,8.09,4.46,10.12l.4,2" style="fill:none;stroke:#fff;stroke-linecap:round;stroke-linejoin:round;stroke-width:0.75px"></path><path d="M269,270.73a67.36,67.36,0,0,1-4,20.71c-.27.71-.61,1.48-1,2.3" style="fill:none;stroke:#fff;stroke-linecap:round;stroke-linejoin:round;stroke-width:0.75px"></path><path d="M269,265.12s0,.83,0,2.28" style="fill:none;stroke:#fff;stroke-linecap:round;stroke-linejoin:round;stroke-width:0.75px"></path><path d="M242.41,387.05l1.45,3.58" style="fill:none;stroke:#fff;stroke-linecap:round;stroke-linejoin:round;stroke-width:0.75px"></path><path d="M226.45,353.38s.81,4.86,3.64,7.29c1.9,1.63,7.46,14.57,10.9,22.91" style="fill:none;stroke:#fff;stroke-linecap:round;stroke-linejoin:round;stroke-width:0.75px"></path><path d="M211.61,149.63s-2.38,3.34-6.19,0,1.66-11.89,9.52-11.89,5.71,4.76,13.08,4.76,8.57-5,8.57-5" style="fill:none;stroke:#fff;stroke-linecap:round;stroke-linejoin:round;stroke-width:0.75px"></path><path d="M220.18,149.54a24.51,24.51,0,0,0,9.75.33c5-1,9.75-8.56,9.75-9.28" style="fill:none;stroke:#fff;stroke-linecap:round;stroke-linejoin:round;stroke-width:0.75px"></path><path d="M199.71,142.73s-7.62,2.86-6.19,8.57,8.33,9,12.85,5.95,4.76-6.43,4.76-6.43" style="fill:none;stroke:#fff;stroke-linecap:round;stroke-linejoin:round;stroke-width:0.75px"></path><path d="M213.75,167.2a7.14,7.14,0,0,1,.69,3.59c-.14,2.08-1,4.43.14,5s3-1,3-1" style="fill:none;stroke:#2e353a;stroke-linecap:round;stroke-linejoin:round"></path><path d="M221.76,175.08a8.9,8.9,0,0,0,2.77-9.26" style="fill:none;stroke:#2e353a;stroke-linecap:round;stroke-linejoin:round"></path><path d="M224.8,167.75s-2.21-2.9-3.17-1.38,2.62,4.7,2.62,4.7A5.42,5.42,0,0,0,224.8,167.75Z" style="fill:#A490D1;stroke:#2e353a;stroke-linecap:round;stroke-linejoin:round"></path></g><g id="freepik--Plants--inject-10"><path d="M380.17,327.83s1.49-3.82,1.56-4.07c.73-2.94.42-9.05-2.46-10.84a4,4,0,0,0-5.69,1.83c-1.05,2.15-.31,5,.71,7C375.49,324.14,380.16,327.83,380.17,327.83Z" style="fill:#A490D1"></path><path d="M447.31,355.84c-2.37-2.43-8.4-1.42-11.12-.07-.23.12-3.69,2.36-3.64,2.4l.06,0c-1,.15-2,.33-3.09.54-2,.41-4.36.89-6.84,1.58a72.71,72.71,0,0,0-7.9,2.61,53,53,0,0,0-8.33,4.15l-.09.06c.65-.75,2.38-2.92,2.5-3.1,1.61-2.56,3.22-8.47,1.05-11.07a4,4,0,0,0-6,0c-1.67,1.72-1.86,4.66-1.52,6.9.39,2.52,3.41,7.15,3.65,7.52a71.37,71.37,0,0,0-7.59,5.68c-1.41,1.19-2.79,2.44-4.15,3.7.54-.67,1-1.27,1.07-1.36,1.61-2.56,3.22-8.47,1.05-11.07a4,4,0,0,0-6,0c-1.67,1.72-1.86,4.66-1.52,6.9s2.85,6.27,3.52,7.32L390.9,380c-2.48,2.36-4.95,4.73-7.44,7-.88.8-1.77,1.55-2.66,2.3.48-.6.87-1.1.93-1.19,1.61-2.56,3.22-8.46,1-11.06a4,4,0,0,0-6,0c-1.67,1.71-1.86,4.66-1.52,6.89s2.6,5.88,3.4,7.14c-.94.74-1.87,1.49-2.81,2.16-.66.45-1.25.93-1.93,1.34l-2,1.26c-1.28.76-2.6,1.55-3.88,2.25-.88.5-1.73.95-2.58,1.42.88-.78,2.58-2.34,2.7-2.49a15.48,15.48,0,0,0,3.22-7.18A4.18,4.18,0,0,0,372,389a4,4,0,0,0-1.62-5.75c-2.33-1.07-5.92.46-8.42,2.23.1-1.72.06-2.78.06-2.78l-.66.06.48-1.14c.32-.71.56-1.51.85-2.27.63-1.78,1.18-3.61,1.7-5.47,1.17.57,5.36,2.55,7.63,2.64s5.16-.45,6.67-2.3a4,4,0,0,0-.72-5.93c-2.83-1.87-8.51.41-10.87,2.3-.15.12-1.69,1.67-2.52,2.54.3-1.12.61-2.23.87-3.38.78-3.3,1.46-6.66,2.15-10,.21-1,.43-2.05.65-3.07.42.2,5.35,2.66,7.89,2.76,2.26.08,5.16-.45,6.67-2.3a4,4,0,0,0-.72-5.93c-2.83-1.87-8.51.41-10.87,2.3-.18.15-2.39,2.38-2.93,3,.49-2.25,1-4.49,1.58-6.68a71,71,0,0,1,2.89-8.7c.19.1,5.33,2.69,7.93,2.78,2.26.08,5.16-.44,6.68-2.3a4,4,0,0,0-.73-5.93c-2.83-1.86-8.51.41-10.87,2.31-.18.15-2.56,2.55-3,3,.07-.16.13-.34.19-.5a51.92,51.92,0,0,1,4.43-8.05c.93-1.42,1.9-2.73,2.87-4,.9.58,5.07,3.18,7.41,3.53s5.18.13,6.89-1.55a4,4,0,0,0-.07-6c-2.61-2.16-8.5-.52-11.06,1.1-.14.09-1.45,1.15-2.4,1.93l1.33-1.67c1.64-2,3.26-3.68,4.71-5.18.83-.84,1.6-1.59,2.33-2.28,1.18.1,6,.47,8.16-.29s4.66-2.27,5.4-4.55a4,4,0,0,0-2.81-5.27c-3.32-.72-7.79,3.45-9.31,6.07-.13.23-1.78,4-1.72,4h.07c-.71.65-1.46,1.36-2.27,2.15-1.49,1.47-3.15,3.15-4.84,5.09a71,71,0,0,0-5.14,6.54,51.73,51.73,0,0,0-4.66,8.05l-.05.11c.13-1,.38-3.76.37-4-.06-3-2-8.84-5.23-9.81a4,4,0,0,0-5,3.26c-.45,2.35,1,4.91,2.54,6.59,1.71,1.89,6.78,4.09,7.19,4.26a71.39,71.39,0,0,0-3.2,8.93c-.51,1.77-1,3.57-1.42,5.38.08-.86.14-1.63.14-1.73-.07-3-2-8.84-5.23-9.81a4,4,0,0,0-5,3.26c-.45,2.35,1,4.91,2.53,6.59s5.83,3.66,7,4.17c-.17.69-.34,1.39-.5,2.08-.76,3.34-1.51,6.68-2.35,9.93-.29,1.15-.62,2.27-.95,3.39.07-.76.12-1.41.12-1.5-.07-3-2-8.84-5.23-9.81a4,4,0,0,0-5,3.26c-.44,2.35,1,4.91,2.54,6.59s5.41,3.47,6.77,4.08c-.37,1.13-.74,2.27-1.15,3.35-.3.74-.53,1.47-.87,2.19l-.93,2.09c-.72.12-1.55.28-2.48.49-.25-3.05-1.39-6.78-3.71-7.88a4,4,0,0,0-5.44,2.47c-.8,2.26.26,5,1.51,6.9a5.69,5.69,0,0,0,.61.77,29.49,29.49,0,0,0-10.47,7.24c-8.4,9.38-7.77,23.64-7.77,23.64s11.9-.8,20.36-8.12c2.6-1.22,6-2.86,9.8-4.92,1.44-.76,3-1.61,4.52-2.5.41.51,3.76,4.65,6,5.78,2,1,4.87,1.76,7,.71a4,4,0,0,0,1.83-5.69c-1.79-2.88-7.9-3.19-10.83-2.46-.18.05-2,.72-3.15,1.17.63-.36,1.25-.71,1.9-1.1,1.28-.75,2.55-1.53,3.91-2.38l1.94-1.3c.66-.42,1.31-.95,2-1.42,1.5-1.14,3-2.37,4.43-3.63.66,1.12,3.06,5.08,4.91,6.41s4.55,2.48,6.84,1.76a4,4,0,0,0,2.67-5.34c-1.34-3.12-7.33-4.36-10.34-4.08-.19,0-2.33.46-3.51.73.87-.77,1.74-1.53,2.6-2.34,2.46-2.32,4.88-4.75,7.31-7.17.74-.74,1.49-1.47,2.24-2.2.23.4,3,5.17,5.06,6.65,1.84,1.32,4.55,2.49,6.83,1.77a4,4,0,0,0,2.67-5.34c-1.33-3.12-7.32-4.36-10.34-4.08-.23,0-3.31.67-4.08.87,1.64-1.61,3.3-3.2,5-4.71a69.78,69.78,0,0,1,7.21-5.65c.11.18,3,5.18,5.08,6.69,1.84,1.32,4.55,2.48,6.83,1.77a4,4,0,0,0,2.67-5.35c-1.33-3.12-7.32-4.35-10.34-4.07-.23,0-3.55.71-4.14.88.15-.1.29-.22.44-.31a52.16,52.16,0,0,1,8.13-4.28c1.56-.67,3.08-1.22,4.58-1.73.43,1,2.48,5.46,4.23,7s4.25,3,6.6,2.5a4,4,0,0,0,3.24-5c-1-3.24-6.8-5.13-9.83-5.18-.16,0-1.84.15-3.06.28l2-.65c2.46-.74,4.75-1.27,6.78-1.72,1.16-.25,2.22-.45,3.2-.63.94.74,4.73,3.69,7,4.26s5.14.68,7-.81A4,4,0,0,0,447.31,355.84Zm-86.51,46q-2.66,1.35-5,2.44a33,33,0,0,0,5.25-12.55l1.41.29c.14,2.55,2.16,7.08,2.43,7.67C363.5,400.49,362.12,401.22,360.8,401.88Z" style="fill:#A490D1"></path><path d="M423.41,358.61c2.24-2.05,5.35-7.31,3.94-10.39a4,4,0,0,0-5.75-1.62c-2.07,1.21-3,4-3.29,6.25-.31,2.64,1.55,8.29,1.56,8.3S423.22,358.79,423.41,358.61Z" style="fill:#A490D1"></path><path d="M325.4,333.43S308.12,351,308,372.67s17,39.39,17,39.39,17.28-17.53,17.37-39.24S325.4,333.43,325.4,333.43Z" style="fill:#A490D1"></path><path d="M287.44,383.1s-.11,14.27,8.62,23.34,23,9.51,23,9.51.1-14.27-8.63-23.34S287.44,383.1,287.44,383.1Z" style="fill:#A490D1"></path><g style="opacity:0.5"><path d="M380.17,327.83s1.49-3.82,1.56-4.07c.73-2.94.42-9.05-2.46-10.84a4,4,0,0,0-5.69,1.83c-1.05,2.15-.31,5,.71,7C375.49,324.14,380.16,327.83,380.17,327.83Z" style="fill:#fff"></path><path d="M447.31,355.84c-2.37-2.43-8.4-1.42-11.12-.07-.23.12-3.69,2.36-3.64,2.4l.06,0c-1,.15-2,.33-3.09.54-2,.41-4.36.89-6.84,1.58a72.71,72.71,0,0,0-7.9,2.61,53,53,0,0,0-8.33,4.15l-.09.06c.65-.75,2.38-2.92,2.5-3.1,1.61-2.56,3.22-8.47,1.05-11.07a4,4,0,0,0-6,0c-1.67,1.72-1.86,4.66-1.52,6.9.39,2.52,3.41,7.15,3.65,7.52a71.37,71.37,0,0,0-7.59,5.68c-1.41,1.19-2.79,2.44-4.15,3.7.54-.67,1-1.27,1.07-1.36,1.61-2.56,3.22-8.47,1.05-11.07a4,4,0,0,0-6,0c-1.67,1.72-1.86,4.66-1.52,6.9s2.85,6.27,3.52,7.32L390.9,380c-2.48,2.36-4.95,4.73-7.44,7-.88.8-1.77,1.55-2.66,2.3.48-.6.87-1.1.93-1.19,1.61-2.56,3.22-8.46,1-11.06a4,4,0,0,0-6,0c-1.67,1.71-1.86,4.66-1.52,6.89s2.6,5.88,3.4,7.14c-.94.74-1.87,1.49-2.81,2.16-.66.45-1.25.93-1.93,1.34l-2,1.26c-1.28.76-2.6,1.55-3.88,2.25-.88.5-1.73.95-2.58,1.42.88-.78,2.58-2.34,2.7-2.49a15.48,15.48,0,0,0,3.22-7.18A4.18,4.18,0,0,0,372,389a4,4,0,0,0-1.62-5.75c-2.33-1.07-5.92.46-8.42,2.23.1-1.72.06-2.78.06-2.78l-.66.06.48-1.14c.32-.71.56-1.51.85-2.27.63-1.78,1.18-3.61,1.7-5.47,1.17.57,5.36,2.55,7.63,2.64s5.16-.45,6.67-2.3a4,4,0,0,0-.72-5.93c-2.83-1.87-8.51.41-10.87,2.3-.15.12-1.69,1.67-2.52,2.54.3-1.12.61-2.23.87-3.38.78-3.3,1.46-6.66,2.15-10,.21-1,.43-2.05.65-3.07.42.2,5.35,2.66,7.89,2.76,2.26.08,5.16-.45,6.67-2.3a4,4,0,0,0-.72-5.93c-2.83-1.87-8.51.41-10.87,2.3-.18.15-2.39,2.38-2.93,3,.49-2.25,1-4.49,1.58-6.68a71,71,0,0,1,2.89-8.7c.19.1,5.33,2.69,7.93,2.78,2.26.08,5.16-.44,6.68-2.3a4,4,0,0,0-.73-5.93c-2.83-1.86-8.51.41-10.87,2.31-.18.15-2.56,2.55-3,3,.07-.16.13-.34.19-.5a51.92,51.92,0,0,1,4.43-8.05c.93-1.42,1.9-2.73,2.87-4,.9.58,5.07,3.18,7.41,3.53s5.18.13,6.89-1.55a4,4,0,0,0-.07-6c-2.61-2.16-8.5-.52-11.06,1.1-.14.09-1.45,1.15-2.4,1.93l1.33-1.67c1.64-2,3.26-3.68,4.71-5.18.83-.84,1.6-1.59,2.33-2.28,1.18.1,6,.47,8.16-.29s4.66-2.27,5.4-4.55a4,4,0,0,0-2.81-5.27c-3.32-.72-7.79,3.45-9.31,6.07-.13.23-1.78,4-1.72,4h.07c-.71.65-1.46,1.36-2.27,2.15-1.49,1.47-3.15,3.15-4.84,5.09a71,71,0,0,0-5.14,6.54,51.73,51.73,0,0,0-4.66,8.05l-.05.11c.13-1,.38-3.76.37-4-.06-3-2-8.84-5.23-9.81a4,4,0,0,0-5,3.26c-.45,2.35,1,4.91,2.54,6.59,1.71,1.89,6.78,4.09,7.19,4.26a71.39,71.39,0,0,0-3.2,8.93c-.51,1.77-1,3.57-1.42,5.38.08-.86.14-1.63.14-1.73-.07-3-2-8.84-5.23-9.81a4,4,0,0,0-5,3.26c-.45,2.35,1,4.91,2.53,6.59s5.83,3.66,7,4.17c-.17.69-.34,1.39-.5,2.08-.76,3.34-1.51,6.68-2.35,9.93-.29,1.15-.62,2.27-.95,3.39.07-.76.12-1.41.12-1.5-.07-3-2-8.84-5.23-9.81a4,4,0,0,0-5,3.26c-.44,2.35,1,4.91,2.54,6.59s5.41,3.47,6.77,4.08c-.37,1.13-.74,2.27-1.15,3.35-.3.74-.53,1.47-.87,2.19l-.93,2.09c-.72.12-1.55.28-2.48.49-.25-3.05-1.39-6.78-3.71-7.88a4,4,0,0,0-5.44,2.47c-.8,2.26.26,5,1.51,6.9a5.69,5.69,0,0,0,.61.77,29.49,29.49,0,0,0-10.47,7.24c-8.4,9.38-7.77,23.64-7.77,23.64s11.9-.8,20.36-8.12c2.6-1.22,6-2.86,9.8-4.92,1.44-.76,3-1.61,4.52-2.5.41.51,3.76,4.65,6,5.78,2,1,4.87,1.76,7,.71a4,4,0,0,0,1.83-5.69c-1.79-2.88-7.9-3.19-10.83-2.46-.18.05-2,.72-3.15,1.17.63-.36,1.25-.71,1.9-1.1,1.28-.75,2.55-1.53,3.91-2.38l1.94-1.3c.66-.42,1.31-.95,2-1.42,1.5-1.14,3-2.37,4.43-3.63.66,1.12,3.06,5.08,4.91,6.41s4.55,2.48,6.84,1.76a4,4,0,0,0,2.67-5.34c-1.34-3.12-7.33-4.36-10.34-4.08-.19,0-2.33.46-3.51.73.87-.77,1.74-1.53,2.6-2.34,2.46-2.32,4.88-4.75,7.31-7.17.74-.74,1.49-1.47,2.24-2.2.23.4,3,5.17,5.06,6.65,1.84,1.32,4.55,2.49,6.83,1.77a4,4,0,0,0,2.67-5.34c-1.33-3.12-7.32-4.36-10.34-4.08-.23,0-3.31.67-4.08.87,1.64-1.61,3.3-3.2,5-4.71a69.78,69.78,0,0,1,7.21-5.65c.11.18,3,5.18,5.08,6.69,1.84,1.32,4.55,2.48,6.83,1.77a4,4,0,0,0,2.67-5.35c-1.33-3.12-7.32-4.35-10.34-4.07-.23,0-3.55.71-4.14.88.15-.1.29-.22.44-.31a52.16,52.16,0,0,1,8.13-4.28c1.56-.67,3.08-1.22,4.58-1.73.43,1,2.48,5.46,4.23,7s4.25,3,6.6,2.5a4,4,0,0,0,3.24-5c-1-3.24-6.8-5.13-9.83-5.18-.16,0-1.84.15-3.06.28l2-.65c2.46-.74,4.75-1.27,6.78-1.72,1.16-.25,2.22-.45,3.2-.63.94.74,4.73,3.69,7,4.26s5.14.68,7-.81A4,4,0,0,0,447.31,355.84Zm-86.51,46q-2.66,1.35-5,2.44a33,33,0,0,0,5.25-12.55l1.41.29c.14,2.55,2.16,7.08,2.43,7.67C363.5,400.49,362.12,401.22,360.8,401.88Z" style="fill:#fff"></path><path d="M423.41,358.61c2.24-2.05,5.35-7.31,3.94-10.39a4,4,0,0,0-5.75-1.62c-2.07,1.21-3,4-3.29,6.25-.31,2.64,1.55,8.29,1.56,8.3S423.22,358.79,423.41,358.61Z" style="fill:#fff"></path><path d="M325.4,333.43S308.12,351,308,372.67s17,39.39,17,39.39,17.28-17.53,17.37-39.24S325.4,333.43,325.4,333.43Z" style="fill:#fff"></path><path d="M287.44,383.1s-.11,14.27,8.62,23.34,23,9.51,23,9.51.1-14.27-8.63-23.34S287.44,383.1,287.44,383.1Z" style="fill:#fff"></path></g><polygon points="336.28 392.35 335.72 391.65 325.56 399.62 325.64 382.07 339.76 369.57 339.16 368.9 325.64 380.86 325.73 361.59 335.24 353.35 334.65 352.67 325.73 360.39 325.85 333.43 324.95 333.43 324.78 373.15 313.59 356.79 312.85 357.3 324.7 374.63 324.77 374.58 324.7 391.08 311.29 379.02 310.68 379.69 324.69 392.29 324.7 392.28 324.61 412.06 325.51 412.06 325.56 400.76 336.28 392.35" style="fill:#fff"></polygon><polygon points="362.3 383.02 361.63 382.42 346.68 399.14 348.04 388.34 347.15 388.22 345.63 400.3 345.64 400.3 339.62 407.02 338.49 397.05 337.6 397.15 338.82 407.92 331.24 416.4 331.9 417 336.21 412.19 344.01 412.65 344.06 411.76 336.98 411.33 343.45 404.1 354.29 404.11 354.29 403.21 344.25 403.2 351.36 395.25 358.57 395.34 358.58 394.44 352.16 394.36 362.3 383.02" style="fill:#fff"></polygon><polygon points="315.95 403.24 315.06 403.12 314.1 410.15 307.38 403.17 308.2 392.35 307.3 392.28 306.54 402.3 299.14 394.61 299.77 387.43 298.87 387.35 298.31 393.75 287.76 382.79 287.12 383.41 302.67 399.57 292 397.4 291.82 398.28 303.75 400.7 303.75 400.69 310.01 407.19 299.97 407.58 300.01 408.48 310.84 408.06 318.73 416.26 319.38 415.64 314.9 410.98 315.95 403.24" style="fill:#fff"></polygon></g></svg>