<svg xmlns="http://www.w3.org/2000/svg" xmlns:xlink="http://www.w3.org/1999/xlink" width="1200" zoomAndPan="magnify" viewBox="0 0 900 449.999984" height="600" preserveAspectRatio="xMidYMid meet" version="1.0"><defs><g/></defs><path fill="#ffffff" d="M 162.644531 184.167969 L 192.074219 154.734375 C 192.074219 154.734375 221.503906 125.304688 250.9375 154.734375 C 280.367188 184.167969 250.9375 213.597656 250.9375 213.597656 L 211.695312 252.839844 C 211.695312 252.839844 182.265625 282.273438 152.832031 252.839844 C 147.3125 247.320312 143.894531 239.988281 143.894531 239.988281 L 160.34375 223.566406 C 160.34375 223.566406 159.679688 230.257812 167.546875 238.125 C 167.546875 238.125 182.265625 252.839844 196.980469 238.125 L 236.222656 198.882812 C 236.222656 198.882812 250.9375 184.167969 236.222656 169.453125 C 221.503906 154.734375 206.789062 169.453125 206.789062 169.453125 L 188.5 187.742188 C 188.5 187.742188 179.40625 180.28125 160.804688 186.007812 Z M 162.644531 184.167969 " fill-opacity="1" fill-rule="nonzero"/><path fill="#ffffff" d="M 191.3125 272.460938 L 161.882812 301.894531 C 161.882812 301.894531 132.453125 331.324219 103.019531 301.894531 C 73.589844 272.460938 103.019531 243.03125 103.019531 243.03125 L 142.261719 203.789062 C 142.261719 203.789062 171.691406 174.355469 201.125 203.789062 C 206.644531 209.308594 210.0625 216.640625 210.0625 216.640625 L 193.609375 233.066406 C 193.609375 233.066406 194.273438 226.371094 186.402344 218.503906 C 186.402344 218.503906 171.6875 203.789062 156.972656 218.503906 L 117.730469 257.746094 C 117.730469 257.746094 103.015625 272.460938 117.730469 287.175781 C 132.445312 301.894531 147.164062 287.175781 147.164062 287.175781 L 165.453125 268.886719 C 165.453125 268.886719 174.546875 276.347656 193.148438 270.621094 Z M 191.3125 272.460938 " fill-opacity="1" fill-rule="nonzero"/><g fill="#ffffff" fill-opacity="1"><g transform="translate(231.892791, 294.58694)"><g><path d="M 31.511719 -105.804688 L 10.433594 -105.804688 L 10.433594 -47.164062 C 10.433594 -16.488281 30.675781 0.835938 64.066406 0.835938 C 78.46875 0.835938 95.789062 -4.800781 105.804688 -9.183594 L 107.476562 0 L 125.003906 0 L 125.003906 -105.804688 L 104.136719 -105.804688 L 104.136719 -27.339844 C 93.074219 -22.328125 76.378906 -18.992188 66.363281 -18.992188 C 36.519531 -18.992188 31.511719 -29.214844 31.511719 -47.164062 Z M 31.511719 -105.804688 "/></g></g></g><g fill="#ffffff" fill-opacity="1"><g transform="translate(394.462823, 294.58694)"><g><path d="M 10.644531 0 L 31.511719 0 L 31.511719 -144.832031 L 10.644531 -143.578125 Z M 10.644531 0 "/></g></g></g><g fill="#ffffff" fill-opacity="1"><g transform="translate(463.539459, 294.58694)"><g><path d="M 0 -103.511719 L 32.972656 0 L 60.730469 0 L 89.320312 -75.753906 L 117.492188 0 L 145.25 0 L 178.222656 -104.972656 L 155.472656 -103.929688 L 130.847656 -20.660156 L 101.839844 -104.761719 L 76.796875 -103.511719 L 47.371094 -20.453125 L 22.957031 -104.761719 Z M 0 -103.511719 "/></g></g></g><g fill="#ffffff" fill-opacity="1"><g transform="translate(668.682338, 294.58694)"><g><path d="M 67.199219 0.835938 C 104.34375 0.835938 129.386719 -20.867188 129.386719 -53.007812 C 129.386719 -84.9375 104.34375 -106.640625 67.199219 -106.640625 C 30.050781 -106.640625 5.21875 -84.9375 5.21875 -53.007812 C 5.21875 -20.867188 30.050781 0.835938 67.199219 0.835938 Z M 67.199219 -86.605469 C 103.929688 -86.605469 107.894531 -62.605469 107.894531 -53.007812 C 107.894531 -43.40625 103.929688 -19.199219 67.199219 -19.199219 C 30.46875 -19.199219 26.503906 -43.40625 26.503906 -53.007812 C 26.503906 -62.605469 30.46875 -86.605469 67.199219 -86.605469 Z M 67.199219 -86.605469 "/></g></g></g></svg>