<svg xmlns="http://www.w3.org/2000/svg" xmlns:xlink="http://www.w3.org/1999/xlink" width="300" zoomAndPan="magnify" viewBox="0 0 224.87999 225" height="300" preserveAspectRatio="xMidYMid meet" version="1.0"><defs><g/><clipPath id="dd1677b19b"><path d="M 39.296875 39.359375 L 185.464844 39.359375 L 185.464844 185.523438 L 39.296875 185.523438 Z M 39.296875 39.359375 " clip-rule="nonzero"/></clipPath></defs><g fill="#ffffff" fill-opacity="1"><g transform="translate(57.685035, 135.711997)"><g><path d="M 11.007812 -36.964844 L 3.644531 -36.964844 L 3.644531 -16.476562 C 3.644531 -5.757812 10.71875 0.292969 22.382812 0.292969 C 27.414062 0.292969 33.464844 -1.675781 36.964844 -3.207031 L 37.546875 0 L 43.671875 0 L 43.671875 -36.964844 L 36.378906 -36.964844 L 36.378906 -9.550781 C 32.515625 -7.800781 26.683594 -6.632812 23.183594 -6.632812 C 12.757812 -6.632812 11.007812 -10.207031 11.007812 -16.476562 Z M 11.007812 -36.964844 "/></g></g></g><g fill="#ffffff" fill-opacity="1"><g transform="translate(105.000854, 135.711997)"><g><path d="M 0 -36.160156 L 11.519531 0 L 21.214844 0 L 31.203125 -26.464844 L 41.046875 0 L 50.742188 0 L 62.261719 -36.671875 L 54.316406 -36.308594 L 45.710938 -7.21875 L 35.578125 -36.597656 L 26.828125 -36.160156 L 16.550781 -7.144531 L 8.019531 -36.597656 Z M 0 -36.160156 "/></g></g></g><g clip-path="url(#dd1677b19b)"><path fill="#ffffff" d="M 112.382812 185.523438 C 92.871094 185.523438 74.496094 177.929688 60.707031 164.113281 C 46.890625 150.328125 39.296875 131.953125 39.296875 112.441406 C 39.296875 92.929688 46.890625 74.554688 60.707031 60.769531 C 74.496094 46.953125 92.871094 39.359375 112.382812 39.359375 C 131.894531 39.359375 150.265625 46.953125 164.054688 60.769531 C 177.871094 74.585938 185.464844 92.929688 185.464844 112.441406 C 185.464844 131.953125 177.871094 150.328125 164.054688 164.113281 C 150.265625 177.929688 131.894531 185.523438 112.382812 185.523438 Z M 112.382812 43.738281 C 94.039062 43.738281 76.773438 50.894531 63.804688 63.863281 C 50.835938 76.835938 43.679688 94.097656 43.679688 112.441406 C 43.679688 130.785156 50.835938 148.046875 63.804688 161.019531 C 76.773438 173.988281 94.039062 181.144531 112.382812 181.144531 C 130.726562 181.144531 147.988281 173.988281 160.957031 161.019531 C 173.925781 148.046875 181.082031 130.785156 181.082031 112.441406 C 181.082031 94.097656 173.925781 76.835938 160.957031 63.863281 C 147.988281 50.894531 130.726562 43.738281 112.382812 43.738281 Z M 112.382812 43.738281 " fill-opacity="1" fill-rule="nonzero"/></g></svg>