<svg xmlns="http://www.w3.org/2000/svg" xmlns:xlink="http://www.w3.org/1999/xlink" width="300" zoomAndPan="magnify" viewBox="0 0 224.87999 225" height="300" preserveAspectRatio="xMidYMid meet" version="1.0"><defs><g/><clipPath id="a3749b30d0"><path d="M 40.925781 39.359375 L 187.09375 39.359375 L 187.09375 185.523438 L 40.925781 185.523438 Z M 40.925781 39.359375 " clip-rule="nonzero"/></clipPath></defs><g fill="#233dff" fill-opacity="1"><g transform="translate(57.684568, 135.276514)"><g><path d="M 11.007812 -36.964844 L 3.644531 -36.964844 L 3.644531 -16.476562 C 3.644531 -5.761719 10.71875 0.292969 22.382812 0.292969 C 27.414062 0.292969 33.464844 -1.675781 36.964844 -3.207031 L 37.546875 0 L 43.671875 0 L 43.671875 -36.964844 L 36.382812 -36.964844 L 36.382812 -9.550781 C 32.519531 -7.800781 26.683594 -6.636719 23.183594 -6.636719 C 12.757812 -6.636719 11.007812 -10.207031 11.007812 -16.476562 Z M 11.007812 -36.964844 "/></g></g></g><g fill="#233dff" fill-opacity="1"><g transform="translate(105.000938, 135.276514)"><g><path d="M 0 -36.164062 L 11.519531 0 L 21.214844 0 L 31.207031 -26.464844 L 41.046875 0 L 50.746094 0 L 62.265625 -36.671875 L 54.316406 -36.308594 L 45.714844 -7.21875 L 35.578125 -36.601562 L 26.832031 -36.164062 L 16.550781 -7.144531 L 8.019531 -36.601562 Z M 0 -36.164062 "/></g></g></g><g clip-path="url(#a3749b30d0)"><path fill="#374df5" d="M 114.011719 185.523438 C 94.5 185.523438 76.125 177.929688 62.339844 164.113281 C 48.523438 150.328125 40.925781 131.953125 40.925781 112.441406 C 40.925781 92.929688 48.523438 74.554688 62.339844 60.769531 C 76.125 46.953125 94.5 39.359375 114.011719 39.359375 C 133.523438 39.359375 151.898438 46.953125 165.683594 60.769531 C 179.5 74.585938 187.09375 92.929688 187.09375 112.441406 C 187.09375 131.953125 179.5 150.328125 165.683594 164.113281 C 151.898438 177.929688 133.523438 185.523438 114.011719 185.523438 Z M 114.011719 43.738281 C 95.667969 43.738281 78.402344 50.894531 65.433594 63.863281 C 52.464844 76.835938 45.308594 94.097656 45.308594 112.441406 C 45.308594 130.785156 52.464844 148.046875 65.433594 161.019531 C 78.402344 173.988281 95.667969 181.144531 114.011719 181.144531 C 132.355469 181.144531 149.617188 173.988281 162.585938 161.019531 C 175.558594 148.046875 182.714844 130.785156 182.714844 112.441406 C 182.714844 94.097656 175.558594 76.835938 162.585938 63.863281 C 149.617188 50.894531 132.355469 43.738281 114.011719 43.738281 Z M 114.011719 43.738281 " fill-opacity="1" fill-rule="nonzero"/></g></svg>